<?xml version="1.0" encoding="utf-8"?>
<!-- Generator: Adobe Illustrator 19.2.0, SVG Export Plug-In . SVG Version: 6.00 Build 0)  -->
<svg version="1.1" id="Слой_1" xmlns="http://www.w3.org/2000/svg" xmlns:xlink="http://www.w3.org/1999/xlink" x="0px" y="0px"
	 viewBox="0 0 27 27.3" style="enable-background:new 0 0 27 27.3;" xml:space="preserve">
<style type="text/css">
	.st0{clip-path:url(#SVGID_2_);fill:#FFFFFF;}
	.st1{clip-path:url(#SVGID_2_);fill:none;stroke:#FFFFFF;stroke-width:2;stroke-miterlimit:10;}
</style>
<g>
	<defs>
		<rect id="SVGID_1_" y="0" width="27" height="27.3"/>
	</defs>
	<clipPath id="SVGID_2_">
		<use xlink:href="#SVGID_1_"  style="overflow:visible;"/>
	</clipPath>
	<path class="st0" d="M18.8,20.3c-0.2,0-0.3,0.2-0.3,0.3c0,0.5-0.3,0.9-0.1,1.3c0.1,0.4,1.1,1.5,1.2,1
		C20.1,20.2,19.3,20.1,18.8,20.3"/>
	<path class="st0" d="M11,3.5C10,3.6,9.8,2.8,9.4,2.1C9.2,2.2,9.1,2.2,9,2.3L9,2.3c-0.1,0-0.2,0.1-0.2,0.1c0,0-0.1,0-0.1,0
		c-0.1,0-0.2,0.1-0.2,0.1c0,0-0.1,0-0.1,0C8.2,2.7,8.1,2.7,8,2.8l0,0C7.9,2.9,7.8,2.9,7.7,3c0,0,0,0-0.1,0c-0.1,0-0.2,0.1-0.2,0.1
		c0,0-0.1,0-0.1,0.1c-0.1,0-0.1,0.1-0.2,0.1c0,0,0,0-0.1,0.1C6.9,3.5,6.9,3.5,6.8,3.6c0,0,0,0,0,0C6.7,3.7,6.6,3.8,6.5,3.8
		c0,0,0,0,0,0C6.4,3.9,6.3,3.9,6.3,4c0,0-0.1,0-0.1,0.1c0,0,0,0-0.1,0C6.1,4.2,6,4.2,5.9,4.3c0,0,0,0-0.1,0C5.8,4.4,5.7,4.5,5.6,4.6
		c0,0,0,0,0,0C5.4,4.7,5.3,4.9,5.1,5.1c0,0,0,0,0,0C5,5.2,4.9,5.3,4.9,5.4c0,0,0,0,0,0C4.7,5.5,4.6,5.7,4.5,5.8
		C4.4,5.9,4.3,6.1,4.1,6.2c0,0,0,0,0,0C4.1,6.4,4,6.4,3.9,6.5c0,0,0,0,0,0C3.6,7,3.4,7.4,3.1,7.8c0,0,0,0,0,0
		C2.9,8.3,2.7,8.7,2.5,9.2c0,0,0,0,0,0c-0.2,0.5-0.3,1-0.5,1.5c0,0,0,0,0,0C2,10.8,2,10.9,2,11c0,0,0,0,0,0c0.5-0.6,1-1.3,1.6-1.6
		c1-0.5,1-0.2,1.4-1.2c0.2-0.4,0.3-0.9,0.5-1.4C5.8,6.2,6,5.6,6.4,5.2c0.1-0.1,0.3-0.3,0.5-0.5C7.3,4.3,7.6,4,7.8,4.1
		c0.6,0.3-0.3,1.5,0.3,1.8C9,6.3,10.2,4,11,3.5"/>
	<path class="st0" d="M5.2,17.2c0-0.9,0.2-1-0.4-1.7c-0.7-0.7-1.3-0.6-1.3-1.7c0,0-0.2,0-0.3,0c-0.2,0.3-0.2,1.1-0.4,1.4
		c0,0-0.1,0.1-0.1,0.1c-0.1,0.1-0.3,0.1-0.4,0.1c-0.1,0-0.2,0-0.3-0.1c-0.1,0-0.2,0-0.2,0c0,0.1,0,0.2,0,0.3c0,0,0,0.1,0,0.1
		c0,0.1,0,0.3,0.1,0.4c0,0,0,0,0,0.1C2,16.4,2,16.5,2,16.7c0,0,0,0.1,0,0.1c0,0.1,0.1,0.3,0.1,0.4c0,0,0,0.1,0,0.1
		c0,0.1,0.1,0.2,0.1,0.4c0,0,0,0.1,0,0.1c0,0.1,0.1,0.3,0.1,0.4c0,0,0,0.1,0,0.1c0,0.1,0.1,0.2,0.1,0.4c0,0,0,0,0,0.1
		c0.1,0.1,0.1,0.3,0.2,0.4c0,0,0,0,0,0.1c0.1,0.1,0.1,0.3,0.2,0.4l0,0c0.1,0.1,0.1,0.3,0.2,0.4c0,0,0,0,0,0.1
		c0.1,0.3,0.3,0.5,0.5,0.7c0,0,0,0,0,0.1C3.9,20.7,3.9,20.9,4,21c0,0,0,0,0,0c0.1,0.1,0.2,0.2,0.3,0.3c0,0,0,0,0,0
		c0.1,0.1,0.2,0.2,0.3,0.3c0,0,0,0,0,0c0.1,0.1,0.2,0.2,0.3,0.3c0,0,0,0,0,0c0.8,0.3,1.7,0.5,2.1,0.5c0-0.7-0.6-1.6-0.9-2.1
		C5.6,19.4,5.2,18.4,5.2,17.2"/>
	<path class="st0" d="M24.2,18.7c-0.1,0-0.2-0.1-0.2-0.2c0-0.3,0-0.5,0-0.8c0-0.1-0.1-0.2-0.1-0.2c-0.1-0.1-0.2-0.1-0.3,0
		c-0.7,0.3-1.7,0.9-1.9,1.3c-0.3,1,1.5,1.4,0.2,2.2c-0.2,0.1-0.3,0.4-0.3,0.6c0,0,0,0.1,0,0.1c0.1,0.5,0.3,1,0.4,1.5l0.2,0.2
		c0,0,0.1-0.1,0.1-0.1c0,0,0.1,0,0.1-0.1c0.1-0.1,0.1-0.1,0.2-0.2c0,0,0,0,0.1-0.1c0.1-0.1,0.2-0.2,0.3-0.3c0,0,0,0,0,0
		c0.1-0.1,0.1-0.1,0.2-0.2c0,0,0,0,0.1-0.1c0.1-0.1,0.2-0.2,0.2-0.2c0,0,0,0,0,0c0.1-0.1,0.2-0.2,0.3-0.3c0,0,0,0,0.1-0.1
		c0,0,0.1-0.1,0.1-0.1c0,0,0.1-0.1,0.1-0.1c0,0,0,0,0-0.1c0.1-0.1,0.2-0.2,0.2-0.3c0,0,0,0,0,0c0.1-0.1,0.1-0.2,0.2-0.3
		c0,0,0,0,0-0.1c0.1-0.1,0.1-0.2,0.2-0.3c0,0,0,0,0,0c0.1-0.1,0.1-0.2,0.2-0.3c0,0,0,0,0,0c0.1-0.1,0.1-0.2,0.2-0.3l0-0.1
		c0.1-0.2,0.2-0.5,0.4-0.7c0,0,0,0,0-0.1c0.1-0.1,0.1-0.2,0.1-0.3c0,0,0,0,0,0c0.1-0.1,0.1-0.2,0.2-0.4c0,0,0,0,0,0
		C25.5,18.6,24.8,18.7,24.2,18.7"/>
	<path class="st0" d="M21.2,11.8c-0.4-0.1-0.6-0.4-0.6-0.8c2.3-0.4,1.5,2.5,2.9,3.2c0,0,0.1,0,0.1,0c0,0,0.1-0.1,0.1-0.1
		c0.2-0.5,0.2-1.4,0.5-1.8c0-0.1,0.1-0.1,0.1-0.1c0.1,0,0.1,0,0.1,0.1c0.2,0.3,0.5,0.5,0.7,0.8c0,0,0.1,0.1,0.2,0
		c0.1,0,0.1-0.1,0.1-0.1c0.2-1.7-0.6-2.7-1.3-4.1l0.2-0.3l-0.4-0.9h-0.5c-0.2-0.3-0.3-0.5-0.4-0.9c-0.1-0.9,0.4-0.8,0.8-1.1
		c0,0,0,0,0,0c-0.2-0.3-0.5-0.6-0.8-0.8c0,0,0,0,0,0c-0.1-0.1-0.2-0.2-0.3-0.2c0,0,0,0,0,0c-0.2-0.2-0.4-0.3-0.6-0.5c0,0,0,0,0,0
		c-0.1-0.1-0.2-0.1-0.3-0.2l0,0c-0.1-0.1-0.2-0.1-0.3-0.2c0,0,0,0,0,0c-0.6,0.3-1.3,0.4-2,0.4l-0.6,0c-1.3,0-2.6-0.2-3.6,0.3
		c-0.4,0.2-0.7,0.6-1.1,0.9c-0.1,0-0.2,0.1-0.3,0.1c-0.7,0.3-1.7,0.5-2.3,1c-0.5,0.4-0.9,1.2-0.8,1.8c0.8,0.3,1.3-0.9,2.2-0.5
		c0.3,0.2,0.5,0.8,0.9,1.1c0.1,0,0.2,0.1,0.2,0.1c0.4,0.1,0.9,0.1,1.2,0.4c1,1,0,1.2-1.2,1.2c-0.8,0-1.6-0.1-2-0.1
		c-0.1,0-0.2,0.1-0.2,0.2c-0.2,0.8-0.8,0.7-1.2,1.4c-0.3,0.5-0.1,1.6,0.2,2.2c0.2,0.3,0.8,1.5,1.1,1.5c0.8,0.1,0.8-0.7,1.5-0.3
		c0.2,0.1,0.2,0.4,0.3,0.5c0.1,0.1,0.2,0.1,0.3,0.2c0.2,0.1,0.3,0.2,0.4,0.3c0.3,0.2,0.3-0.2,0.6,0.2c0.3,0.3,0,1.2,0.1,1.6
		c0.1,1.2,0.2,2.4,0.3,3.7c0,0.1,0.1,0.2,0.2,0.3c0.2,0.1,0.4,0.2,0.6,0.2c0.1,0,0.3-0.1,0.3-0.2c0.5-1.2,1.8-2.8,2.7-3.7
		c0.8-0.8,2-1.3,1.1-2.6c-0.9-1.3-2.6-1-2.4-3.1c0.9-0.2,1.3,0.8,1.8,1.4c0,0,0.1,0.1,0.2,0c0.2-0.7,1-1.1,1.3-1.7
		c0-0.1,0-0.1,0-0.2C21.3,11.8,21.2,11.8,21.2,11.8"/>
	<ellipse class="st1" cx="13.5" cy="13.6" rx="12.5" ry="12.6"/>
</g>
</svg>
