<?xml version="1.0" encoding="utf-8"?>
<!-- Generator: Adobe Illustrator 19.2.0, SVG Export Plug-In . SVG Version: 6.00 Build 0)  -->
<svg version="1.1" id="Слой_1" xmlns="http://www.w3.org/2000/svg" xmlns:xlink="http://www.w3.org/1999/xlink" x="0px" y="0px"
	 viewBox="0 0 328.4 46.1" style="enable-background:new 0 0 328.4 46.1;" xml:space="preserve">
<style type="text/css">
	.st0{clip-path:url(#SVGID_2_);fill:#FFFFFF;}
</style>
<g>
	<defs>
		<rect id="SVGID_1_" y="0" width="328.4" height="46.1"/>
	</defs>
	<clipPath id="SVGID_2_">
		<use xlink:href="#SVGID_1_"  style="overflow:visible;"/>
	</clipPath>
	<path class="st0" d="M9,10.4c3.3-0.8,7.3-1.4,10.6-1.4c7.6,0,11.9,2.2,11.9,9.7v25.5c0,0.6-0.3,1-1,1h-6.9c-0.7,0-1.1-0.4-1.1-1V20
		c0-3.3-1.1-4.9-4.9-4.9c-4.2,0-8.7,1.1-8.7,1.1v28c0,0.6-0.3,1-1,1H1.1c-0.7,0-1.1-0.4-1.1-1V2.6c0-0.8,0.3-1.3,1.1-1.4L7.8,0H8
		c0.6,0,1,0.4,1,1.1v5.3V10.4z"/>
	<path class="st0" d="M54.1,46.1c-14.9,0-16.8-8.2-16.8-18.5c0-10.4,1.9-18.6,16.8-18.6c15,0,16.8,8.2,16.8,18.6
		C70.9,37.8,69.1,46.1,54.1,46.1 M54.1,15.2c-7.2,0-7.5,4.2-7.5,12.3c0,8,0.3,12.3,7.5,12.3c7.2,0,7.6-4.2,7.6-12.3
		C61.7,19.4,61.3,15.2,54.1,15.2"/>
	<path class="st0" d="M88.2,46c-5.9,0-11.2-1.5-12.3-2c-0.3-0.1-0.7-0.3-0.7-0.9v-0.3l0.8-3.8c0.1-0.5,0.3-0.7,0.7-0.7h0.3
		c0.8,0.2,5.7,1.7,10.2,1.7c3.7,0,6.5-1.1,6.5-4.4c0-4-2.7-4-6.7-4.7c-4.1-0.7-11.6-1.5-11.6-10.8c0-9.6,8.4-11,14.4-11
		c5.5,0,9.8,1.2,10.9,1.5c0.6,0.1,0.8,0.5,0.8,0.9c0,0.1,0,0.1-0.1,0.2l-0.7,4c-0.1,0.5-0.5,0.6-0.8,0.6h-0.3
		c-0.7-0.1-5.1-1.1-8.7-1.1c-3.2,0-6.7,0.7-6.7,4.1c0,3.8,3.6,4,7.3,4.5c5.3,0.9,11.1,2.1,11.1,10.9C102.8,43.4,96.3,46,88.2,46"/>
	<path class="st0" d="M129.7,43.5c0,0.5-0.3,0.9-0.8,1c-1.1,0.3-4.1,1.3-8.4,1.3c-7.7,0-11.5-3-11.5-10.6V2.8c0-0.8,0.4-1.2,1.1-1.4
		l6.6-1.2h0.3c0.6,0,0.9,0.3,0.9,1.1v8.6h9.6c0.6,0,1,0.4,1,1v4.6c0,0.6-0.4,0.9-1,0.9H118V35c0,3,1.2,4.2,4.7,4.2
		c2,0,4-0.3,5.1-0.6h0.3c0.4,0,0.7,0.3,0.7,0.7l0.8,3.8C129.6,43.3,129.7,43.4,129.7,43.5"/>
	<path class="st0" d="M168.2,45.2h-11c-0.4,0-0.8-0.4-0.9-0.8l-11.9-29.5h-1.6l0.4,29.6c0,0.4-0.3,0.7-0.8,0.7h-5.3
		c-0.4,0-0.8-0.3-0.8-0.7V10.3c0-0.4,0.4-0.7,0.8-0.7h11.6c0.4,0,0.8,0.3,1,0.7L161.8,41h0.7l-0.3-30.6c0-0.6,0.4-0.8,1-0.8h4.9
		c0.6,0,1,0.2,1,0.8v34.1C169,44.9,168.7,45.2,168.2,45.2"/>
	<path class="st0" d="M191.1,45.8c-14,0-16.9-7.4-16.9-18.4c0-11.1,2.9-18.5,16.9-18.5c14,0,16.9,7.4,16.9,18.5
		C208,38.4,205.1,45.8,191.1,45.8 M191.1,14c-8.8,0-9.7,4.6-9.7,13.3c0,8.8,0.9,13.4,9.7,13.4c8.8,0,9.8-4.7,9.8-13.4
		C200.8,18.6,199.9,14,191.1,14"/>
	<path class="st0" d="M264.6,45.2h-14.5c-0.4,0-0.8-0.3-0.8-0.8V10.4c0-0.4,0.3-0.8,0.8-0.8h14.5c11.8,0,16.3,4.5,16.3,17.8
		C280.9,40.7,276.4,45.2,264.6,45.2 M263.8,14.5h-7.5v25.7l7.5,0c7.2,0,10.1-2.1,10.1-12.9C273.8,16.5,271,14.5,263.8,14.5"/>
	<path class="st0" d="M293.2,45.2h-5.3c-0.4,0-0.8-0.3-0.8-0.7V10.4c0-0.4,0.3-0.6,0.7-0.7l5.5-0.7h0.1c0.4,0,0.6,0.3,0.6,0.7v34.8
		C294.1,44.9,293.7,45.2,293.2,45.2"/>
	<path class="st0" d="M328.4,42.9c0,0.3-0.1,0.7-0.8,0.9c-1.9,0.6-5.4,1.6-11.3,1.6c-12.2,0-16.2-5.6-16.2-18.2
		c0-12.5,4.1-18.2,16.2-18.2c5.8,0,9.4,1.2,11.3,1.7c0.7,0.2,0.8,0.6,0.8,0.9c0,0.1,0,0.2-0.1,0.3l-0.6,3.1c0,0.4-0.3,0.6-0.7,0.6
		c-0.1,0-0.3,0-0.4-0.1c-1.7-0.4-5.4-1.4-9.2-1.4c-8.3,0-10.3,3.9-10.3,12.9c0,9.1,1.9,13,10.3,13c3.7,0,7.4-0.9,9.2-1.3
		c0.1,0,0.3-0.1,0.4-0.1c0.4,0,0.7,0.2,0.7,0.6l0.6,3.1C328.4,42.7,328.4,42.8,328.4,42.9"/>
	<path class="st0" d="M220.2,21v-6.5h9.1c4.3,0,5.9,1.9,5.9,6c0,4.6-2.8,5.6-7.2,5.8l-1.2,0.1c-0.9,0-1.6,0.8-1.6,1.7v1.5
		c0,0.9,0.7,1.7,1.6,1.7l1,0c4.3,0.1,7.4,1.1,7.6,5.1l0.5,8c0,0.4,0.3,0.7,0.8,0.7h5.4c0.4,0,0.7-0.6,0.7-0.8l-0.3-6.6
		c-0.3-6.9-3.4-8-8.4-8.3v-1.3c6.1-0.7,8-3.6,8-8.6c0-7.5-4.5-9.9-11.8-9.9H214c-0.4,0-0.8,0.3-0.8,0.8v34.1c0,0.4,0.3,0.7,0.8,0.7
		h5.3c0.5,0,0.8-0.3,0.8-0.7V21z"/>
</g>
</svg>
