<?xml version="1.0" encoding="utf-8"?>
<!-- Generator: Adobe Illustrator 19.2.0, SVG Export Plug-In . SVG Version: 6.00 Build 0)  -->
<svg version="1.1" id="Слой_1" xmlns="http://www.w3.org/2000/svg" xmlns:xlink="http://www.w3.org/1999/xlink" x="0px" y="0px"
	 viewBox="0 0 34.3 34.3" style="enable-background:new 0 0 34.3 34.3;" xml:space="preserve">
<style type="text/css">
	.st0{clip-path:url(#SVGID_2_);fill:none;stroke:#FFFFFF;stroke-width:2;stroke-miterlimit:10;}
</style>
<g>
	<defs>
		<rect id="SVGID_1_" y="0" width="34.3" height="34.3"/>
	</defs>
	<clipPath id="SVGID_2_">
		<use xlink:href="#SVGID_1_"  style="overflow:visible;"/>
	</clipPath>
	<path class="st0" d="M9.1,1.9c0.1,0.1,0.3,0.3,0.4,0.5l3.3,5.1c1,1.5-0.2,2.7-1.1,3.6l-0.3,0.3c-0.5,0.6-0.7,1.2-0.3,3.4
		c0,0,0.5,2.1,3.4,5l0.4,0.4c2.7,2.5,4.6,3,4.6,3c2.2,0.5,2.8,0.3,3.4-0.3l0.3-0.3c0.9-0.9,2.1-2.1,3.6-1.1l5.1,3.3
		c1.4,1,1.8,2.9,0.9,4.3l-2.1,2.7c-0.8,1-2.1,1.6-3.3,1.4c-7.2-1.1-11.2-3.2-17.3-9.1l-0.5-0.4l0,0C4.1,17.9,2.1,13.9,1,6.9
		C0.8,5.6,1.4,4.4,2.4,3.6l2.7-2C6.4,0.7,8.1,0.9,9.1,1.9z"/>
</g>
</svg>
