<?xml version="1.0" encoding="UTF-8"?><!DOCTYPE svg PUBLIC "-//W3C//DTD SVG 1.1//EN" "http://www.w3.org/Graphics/SVG/1.1/DTD/svg11.dtd"><svg xmlns="http://www.w3.org/2000/svg" xmlns:xlink="http://www.w3.org/1999/xlink"><defs>
        <path id="SVGID_1_" d="M0 0h27v27.3H0z"/>
    
        <path id="SVGID_1_" d="M0 0h328.4v46.1H0z"/>
    
        <path id="SVGID_1_" d="M0 0h34.3v34.3H0z"/>
    </defs><symbol id="icon-fb" viewBox="0 0 10 19">
    <path d="M9.766.157v2.946H8.014c-.64 0-1.071.134-1.295.402-.223.268-.335.67-.335 1.205v2.11h3.27l-.435 3.303H6.384v8.471H2.97v-8.47H.123V6.82H2.97V4.387c0-1.384.387-2.457 1.161-3.22C4.904.404 5.934.023 7.222.023c1.093 0 1.941.045 2.544.134z" fill-rule="evenodd"/>
</symbol><symbol id="icon-in" viewBox="0 0 430.117 430.117">
    <path d="M430.117 261.543V420.56h-92.188V272.193c0-37.271-13.334-62.707-46.703-62.707-25.473 0-40.632 17.142-47.301 33.724-2.432 5.928-3.058 14.179-3.058 22.477V420.56h-92.219s1.242-251.285 0-277.32h92.21v39.309c-.187.294-.43.611-.606.896h.606v-.896c12.251-18.869 34.13-45.824 83.102-45.824 60.673-.001 106.157 39.636 106.157 124.818zM52.183 9.558C20.635 9.558 0 30.251 0 57.463c0 26.619 20.038 47.94 50.959 47.94h.616c32.159 0 52.159-21.317 52.159-47.94-.606-27.212-20-47.905-51.551-47.905zM5.477 420.56h92.184V143.24H5.477v277.32z"/>
</symbol><symbol id="icon-land" viewBox="0 0 27 27.3">
    <style>
        .st0,.st1{clip-path:url(#SVGID_2_);fill:#fff}.st1{fill:none;stroke:#fff;stroke-width:2;stroke-miterlimit:10}
    </style>
    
    <clipPath id="SVGID_2_">
        <use xlink:href="#SVGID_1_" overflow="visible"/>
    </clipPath>
    <path class="st0" d="M18.8 20.3c-.2 0-.3.2-.3.3 0 .5-.3.9-.1 1.3.1.4 1.1 1.5 1.2 1 .5-2.7-.3-2.8-.8-2.6"/>
    <path class="st0" d="M11 3.5c-1 .1-1.2-.7-1.6-1.4-.2.1-.3.1-.4.2-.1 0-.2.1-.2.1h-.1c-.1 0-.2.1-.2.1h-.1c-.2.2-.3.2-.4.3-.1.1-.2.1-.3.2h-.1c-.1 0-.2.1-.2.1s-.1 0-.1.1c-.1 0-.1.1-.2.1l-.1.1-.2.2c-.1.1-.2.2-.3.2-.1.1-.2.1-.2.2 0 0-.1 0-.1.1h-.1c0 .1-.1.1-.2.2h-.1c0 .1-.1.2-.2.3-.2.1-.3.3-.5.5-.1.1-.2.2-.2.3-.2.1-.3.3-.4.4-.1.1-.2.3-.4.4 0 .2-.1.2-.2.3-.3.5-.5.9-.8 1.3-.2.5-.4.9-.6 1.4-.2.5-.3 1-.5 1.5v.3c.5-.6 1-1.3 1.6-1.6 1-.5 1-.2 1.4-1.2.2-.4.3-.9.5-1.4.3-.6.5-1.2.9-1.6l.5-.5c.4-.4.7-.7.9-.6.6.3-.3 1.5.3 1.8.9.4 2.1-1.9 2.9-2.4"/>
    <path class="st0" d="M5.2 17.2c0-.9.2-1-.4-1.7-.7-.7-1.3-.6-1.3-1.7h-.3c-.2.3-.2 1.1-.4 1.4l-.1.1c-.1.1-.3.1-.4.1-.1 0-.2 0-.3-.1h-.2v.4c0 .1 0 .3.1.4v.1c.1.2.1.3.1.5v.1c0 .1.1.3.1.4v.1c0 .1.1.2.1.4v.1c0 .1.1.3.1.4v.1c0 .1.1.2.1.4v.1c.1.1.1.3.2.4v.1c.1.1.1.3.2.4.1.1.1.3.2.4v.1c.1.3.3.5.5.7v.1c.4-.3.4-.1.5 0l.3.3.3.3.3.3c.8.3 1.7.5 2.1.5 0-.7-.6-1.6-.9-2.1-.5-.9-.9-1.9-.9-3.1"/>
    <path class="st0" d="M24.2 18.7c-.1 0-.2-.1-.2-.2v-.8c0-.1-.1-.2-.1-.2-.1-.1-.2-.1-.3 0-.7.3-1.7.9-1.9 1.3-.3 1 1.5 1.4.2 2.2-.2.1-.3.4-.3.6v.1c.1.5.3 1 .4 1.5l.2.2.1-.1s.1 0 .1-.1l.2-.2.1-.1.3-.3.2-.2.1-.1.2-.2.3-.3.1-.1.1-.1.1-.1v-.1c.1-.1.2-.2.2-.3.1-.1.1-.2.2-.3v-.1c.1-.1.1-.2.2-.3.1-.1.1-.2.2-.3.1-.1.1-.2.2-.3v-.1c.1-.2.2-.5.4-.7v-.1c.1-.1.1-.2.1-.3.1-.1.1-.2.2-.4-.3.4-1 .5-1.6.5"/>
    <path class="st0" d="M21.2 11.8c-.4-.1-.6-.4-.6-.8 2.3-.4 1.5 2.5 2.9 3.2h.1l.1-.1c.2-.5.2-1.4.5-1.8 0-.1.1-.1.1-.1.1 0 .1 0 .1.1.2.3.5.5.7.8 0 0 .1.1.2 0 .1 0 .1-.1.1-.1.2-1.7-.6-2.7-1.3-4.1l.2-.3-.4-.9h-.5c-.2-.3-.3-.5-.4-.9-.1-.9.4-.8.8-1.1-.2-.3-.5-.6-.8-.8-.1-.1-.2-.2-.3-.2-.2-.2-.4-.3-.6-.5-.1-.1-.2-.1-.3-.2-.1-.1-.2-.1-.3-.2-.6.3-1.3.4-2 .4h-.6c-1.3 0-2.6-.2-3.6.3-.4.2-.7.6-1.1.9-.1 0-.2.1-.3.1-.7.3-1.7.5-2.3 1-.5.4-.9 1.2-.8 1.8.8.3 1.3-.9 2.2-.5.3.2.5.8.9 1.1.1 0 .2.1.2.1.4.1.9.1 1.2.4 1 1 0 1.2-1.2 1.2-.8 0-1.6-.1-2-.1-.1 0-.2.1-.2.2-.2.8-.8.7-1.2 1.4-.3.5-.1 1.6.2 2.2.2.3.8 1.5 1.1 1.5.8.1.8-.7 1.5-.3.2.1.2.4.3.5.1.1.2.1.3.2.2.1.3.2.4.3.3.2.3-.2.6.2.3.3 0 1.2.1 1.6.1 1.2.2 2.4.3 3.7 0 .1.1.2.2.3.2.1.4.2.6.2.1 0 .3-.1.3-.2.5-1.2 1.8-2.8 2.7-3.7.8-.8 2-1.3 1.1-2.6-.9-1.3-2.6-1-2.4-3.1.9-.2 1.3.8 1.8 1.4 0 0 .1.1.2 0 .2-.7 1-1.1 1.3-1.7v-.2c0-.6-.1-.6-.1-.6"/>
    <ellipse class="st1" cx="13.5" cy="13.6" rx="12.5" ry="12.6"/>
</symbol><symbol id="icon-logo" viewBox="0 0 328.4 46.1">
    <style>
        .st0{clip-path:url(#SVGID_2_);fill:#fff}
    </style>
    
    <clipPath id="SVGID_2_">
        <use xlink:href="#SVGID_1_" overflow="visible"/>
    </clipPath>
    <path class="st0" d="M9 10.4C12.3 9.6 16.3 9 19.6 9c7.6 0 11.9 2.2 11.9 9.7v25.5c0 .6-.3 1-1 1h-6.9c-.7 0-1.1-.4-1.1-1V20c0-3.3-1.1-4.9-4.9-4.9-4.2 0-8.7 1.1-8.7 1.1v28c0 .6-.3 1-1 1H1.1c-.7 0-1.1-.4-1.1-1V2.6c0-.8.3-1.3 1.1-1.4L7.8 0H8c.6 0 1 .4 1 1.1v9.3z"/>
    <path class="st0" d="M54.1 46.1c-14.9 0-16.8-8.2-16.8-18.5C37.3 17.2 39.2 9 54.1 9c15 0 16.8 8.2 16.8 18.6 0 10.2-1.8 18.5-16.8 18.5m0-30.9c-7.2 0-7.5 4.2-7.5 12.3 0 8 .3 12.3 7.5 12.3s7.6-4.2 7.6-12.3c0-8.1-.4-12.3-7.6-12.3"/>
    <path class="st0" d="M88.2 46c-5.9 0-11.2-1.5-12.3-2-.3-.1-.7-.3-.7-.9v-.3L76 39c.1-.5.3-.7.7-.7h.3c.8.2 5.7 1.7 10.2 1.7 3.7 0 6.5-1.1 6.5-4.4 0-4-2.7-4-6.7-4.7-4.1-.7-11.6-1.5-11.6-10.8 0-9.6 8.4-11 14.4-11 5.5 0 9.8 1.2 10.9 1.5.6.1.8.5.8.9 0 .1 0 .1-.1.2l-.7 4c-.1.5-.5.6-.8.6h-.3c-.7-.1-5.1-1.1-8.7-1.1-3.2 0-6.7.7-6.7 4.1 0 3.8 3.6 4 7.3 4.5 5.3.9 11.1 2.1 11.1 10.9.2 8.7-6.3 11.3-14.4 11.3"/>
    <path class="st0" d="M129.7 43.5c0 .5-.3.9-.8 1-1.1.3-4.1 1.3-8.4 1.3-7.7 0-11.5-3-11.5-10.6V2.8c0-.8.4-1.2 1.1-1.4l6.6-1.2h.3c.6 0 .9.3.9 1.1v8.6h9.6c.6 0 1 .4 1 1v4.6c0 .6-.4.9-1 .9H118V35c0 3 1.2 4.2 4.7 4.2 2 0 4-.3 5.1-.6h.3c.4 0 .7.3.7.7l.8 3.8c0 .2.1.3.1.4"/>
    <path class="st0" d="M168.2 45.2h-11c-.4 0-.8-.4-.9-.8l-11.9-29.5h-1.6l.4 29.6c0 .4-.3.7-.8.7h-5.3c-.4 0-.8-.3-.8-.7V10.3c0-.4.4-.7.8-.7h11.6c.4 0 .8.3 1 .7L161.8 41h.7l-.3-30.6c0-.6.4-.8 1-.8h4.9c.6 0 1 .2 1 .8v34.1c-.1.4-.4.7-.9.7"/>
    <path class="st0" d="M191.1 45.8c-14 0-16.9-7.4-16.9-18.4 0-11.1 2.9-18.5 16.9-18.5 14 0 16.9 7.4 16.9 18.5 0 11-2.9 18.4-16.9 18.4m0-31.8c-8.8 0-9.7 4.6-9.7 13.3 0 8.8.9 13.4 9.7 13.4 8.8 0 9.8-4.7 9.8-13.4-.1-8.7-1-13.3-9.8-13.3"/>
    <path class="st0" d="M264.6 45.2h-14.5c-.4 0-.8-.3-.8-.8v-34c0-.4.3-.8.8-.8h14.5c11.8 0 16.3 4.5 16.3 17.8s-4.5 17.8-16.3 17.8m-.8-30.7h-7.5v25.7h7.5c7.2 0 10.1-2.1 10.1-12.9-.1-10.8-2.9-12.8-10.1-12.8"/>
    <path class="st0" d="M293.2 45.2h-5.3c-.4 0-.8-.3-.8-.7V10.4c0-.4.3-.6.7-.7l5.5-.7h.1c.4 0 .6.3.6.7v34.8c.1.4-.3.7-.8.7"/>
    <path class="st0" d="M328.4 42.9c0 .3-.1.7-.8.9-1.9.6-5.4 1.6-11.3 1.6-12.2 0-16.2-5.6-16.2-18.2 0-12.5 4.1-18.2 16.2-18.2 5.8 0 9.4 1.2 11.3 1.7.7.2.8.6.8.9 0 .1 0 .2-.1.3l-.6 3.1c0 .4-.3.6-.7.6-.1 0-.3 0-.4-.1-1.7-.4-5.4-1.4-9.2-1.4-8.3 0-10.3 3.9-10.3 12.9 0 9.1 1.9 13 10.3 13 3.7 0 7.4-.9 9.2-1.3.1 0 .3-.1.4-.1.4 0 .7.2.7.6l.6 3.1c.1.4.1.5.1.6"/>
    <path class="st0" d="M220.2 21v-6.5h9.1c4.3 0 5.9 1.9 5.9 6 0 4.6-2.8 5.6-7.2 5.8l-1.2.1c-.9 0-1.6.8-1.6 1.7v1.5c0 .9.7 1.7 1.6 1.7h1c4.3.1 7.4 1.1 7.6 5.1l.5 8c0 .4.3.7.8.7h5.4c.4 0 .7-.6.7-.8l-.3-6.6c-.3-6.9-3.4-8-8.4-8.3v-1.3c6.1-.7 8-3.6 8-8.6 0-7.5-4.5-9.9-11.8-9.9H214c-.4 0-.8.3-.8.8v34.1c0 .4.3.7.8.7h5.3c.5 0 .8-.3.8-.7V21z"/>
</symbol><symbol id="icon-menu" viewBox="0 0 56 56">
    <g>
        <path d="M8 40c-4.411 0-8 3.589-8 8s3.589 8 8 8 8-3.589 8-8-3.589-8-8-8z"/>
        <path d="M28 40c-4.411 0-8 3.589-8 8s3.589 8 8 8 8-3.589 8-8-3.589-8-8-8z"/>
        <path d="M48 40c-4.411 0-8 3.589-8 8s3.589 8 8 8 8-3.589 8-8-3.589-8-8-8z"/>
        <path d="M8 20c-4.411 0-8 3.589-8 8s3.589 8 8 8 8-3.589 8-8-3.589-8-8-8z"/>
        <path d="M28 20c-4.411 0-8 3.589-8 8s3.589 8 8 8 8-3.589 8-8-3.589-8-8-8z"/>
        <path d="M48 20c-4.411 0-8 3.589-8 8s3.589 8 8 8 8-3.589 8-8-3.589-8-8-8z"/>
        <path d="M8 0C3.589 0 0 3.589 0 8s3.589 8 8 8 8-3.589 8-8-3.589-8-8-8z"/>
        <path d="M28 0c-4.411 0-8 3.589-8 8s3.589 8 8 8 8-3.589 8-8-3.589-8-8-8z"/>
        <path d="M48 16c4.411 0 8-3.589 8-8s-3.589-8-8-8-8 3.589-8 8 3.589 8 8 8z"/>
    </g>
</symbol><symbol id="icon-phone" viewBox="0 0 34.3 34.3">
    <style>
        .st0{clip-path:url(#SVGID_2_);fill:none;stroke:#fff;stroke-width:2;stroke-miterlimit:10}
    </style>
    
    <clipPath id="SVGID_2_">
        <use xlink:href="#SVGID_1_" overflow="visible"/>
    </clipPath>
    <path class="st0" d="M9.1 1.9c.1.1.3.3.4.5l3.3 5.1c1 1.5-.2 2.7-1.1 3.6l-.3.3c-.5.6-.7 1.2-.3 3.4 0 0 .5 2.1 3.4 5l.4.4c2.7 2.5 4.6 3 4.6 3 2.2.5 2.8.3 3.4-.3l.3-.3c.9-.9 2.1-2.1 3.6-1.1l5.1 3.3c1.4 1 1.8 2.9.9 4.3l-2.1 2.7c-.8 1-2.1 1.6-3.3 1.4-7.2-1.1-11.2-3.2-17.3-9.1l-.5-.4C4.1 17.9 2.1 13.9 1 6.9c-.2-1.3.4-2.5 1.4-3.3l2.7-2c1.3-.9 3-.7 4 .3z"/>
</symbol><symbol id="icon-tw" viewBox="0 0 612 612">
    <path d="M612 116.258a250.714 250.714 0 0 1-72.088 19.772c25.929-15.527 45.777-40.155 55.184-69.411-24.322 14.379-51.169 24.82-79.775 30.48-22.907-24.437-55.49-39.658-91.63-39.658-69.334 0-125.551 56.217-125.551 125.513 0 9.828 1.109 19.427 3.251 28.606-104.326-5.24-196.835-55.223-258.75-131.174-10.823 18.51-16.98 40.078-16.98 63.101 0 43.559 22.181 81.993 55.835 104.479a125.556 125.556 0 0 1-56.867-15.756v1.568c0 60.806 43.291 111.554 100.693 123.104-10.517 2.83-21.607 4.398-33.08 4.398-8.107 0-15.947-.803-23.634-2.333 15.985 49.907 62.336 86.199 117.253 87.194-42.947 33.654-97.099 53.655-155.916 53.655-10.134 0-20.116-.612-29.944-1.721 55.567 35.681 121.536 56.485 192.438 56.485 230.948 0 357.188-191.291 357.188-357.188l-.421-16.253c24.666-17.593 46.005-39.697 62.794-64.861z"/>
</symbol><symbol id="icon-yt" viewBox="0 0 511.626 511.627">
    <path d="M511.339 212.987c-.186-10.277-1-23.271-2.423-38.97-1.431-15.708-3.478-29.746-6.14-42.115-3.046-13.893-9.661-25.6-19.842-35.117-10.181-9.519-22.031-15.037-35.549-16.562-42.258-4.755-106.115-7.135-191.573-7.135-85.459 0-149.317 2.38-191.572 7.135-13.516 1.524-25.319 7.043-35.404 16.562-10.089 9.514-16.656 21.221-19.702 35.117-2.852 12.373-4.996 26.41-6.423 42.115-1.425 15.699-2.235 28.688-2.424 38.97C.094 223.265 0 237.539 0 255.813c0 18.272.094 32.55.288 42.826.189 10.284.999 23.271 2.424 38.969 1.427 15.707 3.474 29.745 6.139 42.116 3.046 13.897 9.659 25.602 19.842 35.115 10.185 9.517 22.036 15.036 35.548 16.56 42.255 4.76 106.109 7.139 191.572 7.139 85.466 0 149.315-2.379 191.573-7.139 13.518-1.523 25.316-7.043 35.405-16.56 10.089-9.514 16.652-21.225 19.698-35.115 2.854-12.371 4.996-26.409 6.427-42.116 1.423-15.697 2.231-28.691 2.423-38.969.191-10.276.287-24.554.287-42.826 0-18.274-.095-32.548-.287-42.826zm-154.456 58.244L210.706 362.59c-2.666 1.903-5.905 2.854-9.71 2.854-2.853 0-5.803-.764-8.848-2.286-6.28-3.422-9.419-8.754-9.419-15.985V164.454c0-7.229 3.14-12.561 9.419-15.986 6.473-3.431 12.657-3.239 18.558.571l146.178 91.36c5.708 3.23 8.562 8.372 8.562 15.415 0 7.04-2.855 12.184-8.563 15.417z"/>
</symbol></svg>